<svg width="13" height="12" viewBox="0 0 13 12" fill="none" xmlns="http://www.w3.org/2000/svg">
<g clip-path="url(#clip0_2012_416)">
<path d="M6.5 2.5C6.66315 2.4998 6.82447 2.5344 6.97319 2.60149C7.12191 2.66858 7.2546 2.76662 7.36242 2.88906L12.2561 8.45068C12.3394 8.54097 12.4037 8.64698 12.4454 8.76248C12.487 8.87799 12.5052 9.00066 12.4987 9.12328C12.4923 9.2459 12.4614 9.366 12.4079 9.47651C12.3544 9.58703 12.2794 9.68574 12.1872 9.76683C12.095 9.84793 11.9875 9.90977 11.871 9.94873C11.7546 9.9877 11.6315 10.003 11.5091 9.99371C11.3867 9.98443 11.2673 9.95077 11.1581 9.89471C11.0488 9.83865 10.9519 9.76131 10.873 9.66725L6.59377 4.80396C6.58207 4.7906 6.56765 4.77991 6.55148 4.77258C6.53531 4.76525 6.51776 4.76145 6.5 4.76145C6.48224 4.76145 6.46469 4.76525 6.44852 4.77258C6.43235 4.77991 6.41793 4.7906 6.40623 4.80396L2.12702 9.66825C2.0481 9.76231 1.95116 9.83965 1.84192 9.89571C1.73268 9.95177 1.61333 9.98543 1.49089 9.99471C1.36845 10.004 1.2454 9.98869 1.12895 9.94973C1.01251 9.91077 0.905031 9.84892 0.812832 9.76783C0.720633 9.68674 0.645574 9.58803 0.592068 9.47751C0.538563 9.36699 0.507689 9.2469 0.501263 9.12428C0.494836 9.00166 0.512986 8.87899 0.554646 8.76348C0.596306 8.64798 0.660636 8.54196 0.743853 8.45168L5.63608 2.89106C5.74409 2.76831 5.87699 2.66996 6.02594 2.60253C6.1749 2.53511 6.3365 2.50016 6.5 2.5V2.5Z" fill="#A8A8A8"/>
</g>
<defs>
<clipPath id="clip0_2012_416">
<rect width="12" height="12" fill="white" transform="translate(0.5)"/>
</clipPath>
</defs>
</svg>
